<?xml version="1.0" encoding="utf-8"?>
<!-- Generator: Adobe Illustrator 24.1.2, SVG Export Plug-In . SVG Version: 6.00 Build 0)  -->
<svg version="1.1" id="Слой_1" xmlns="http://www.w3.org/2000/svg" xmlns:xlink="http://www.w3.org/1999/xlink" x="0px" y="0px"
	 width="698.2px" height="292.6px" viewBox="0 0 698.2 292.6" enable-background="new 0 0 698.2 292.6" xml:space="preserve">
<g transform="matrix(0.7,0,0,0.7,149.5757575757575,357.8951329187413)">
	<g id="tight-bounds" transform="matrix(1,0,0,1,0.24000000000003752,0.002757213520922619)">
		<g>
			<g>
				<g>
					<g>
						<path id="o-0" fill="#6B7280" d="M-203.9-289.5h977.5c5.5,0,10,3.8,10,8.5v0c0,4.7-4.5,8.5-10,8.5h-977.5
							c-5.5,0-10-3.8-10-8.5v0C-213.9-285.8-209.5-289.5-203.9-289.5z"/>
					</g>
					<g transform="matrix(1,0,0,1,0.9887999999999693,0)">
						<g transform="matrix(1,0,0,1,0,0)">
							<path id="text-0" fill="#6B7280" d="M-201.1-321.9L-201.1-321.9c-7.5-4.9-11.3-11.1-11.3-18.6l0,0c0-10.4,8.3-16.9,24.8-19.4
								l0,0c2.9,16.7,9,28.3,18.3,34.8l0,0c8.3,5.8,17,8.6,26.3,8.6c9.2,0,17.2-2.8,24-8.5c6.7-5.7,10.1-15,10.1-27.9l0,0
								c0-9.7-3.5-17.4-10.4-23.1c-6.9-5.6-15.7-10.6-26.3-14.9c-10.6-4.3-17.8-7.3-21.6-9.1c-3.8-1.7-8.6-4.2-14.4-7.7
								c-5.9-3.4-10.2-6.6-13.1-9.7l0,0c-7.2-8.3-10.8-17.8-10.8-28.6l0,0c0-16.9,6.3-29.6,18.9-38.3c12.6-8.6,30.1-12.9,52.6-12.9
								l0,0c12.8,0,27.6,1.4,44.5,4.3l0,0v39.9h-8.9l-10.8-31.8c-9-2.9-18.1-4.3-27.3-4.3c-9.3,0-17.3,2.9-24.2,8.7
								c-6.8,5.9-10.2,14.5-10.2,26l0,0c0,13.1,5.9,22.9,17.8,29.4l0,0c5.9,3.1,12.9,6.1,21,9.2c8.1,3.1,13.9,5.4,17.5,6.9
								c3.6,1.5,8.4,3.9,14.3,7.2c5.9,3.3,10.3,6.6,13.2,9.9c2.9,3.2,5.5,7.5,7.8,12.8c2.3,5.3,3.5,11.1,3.5,17.4l0,0
								c0,15.3-6.5,27.8-19.4,37.5s-30.6,14.6-52.9,14.6C-170.5-309.5-188.1-313.6-201.1-321.9z M131.3-403.3c0,27-8.4,49.3-25.2,67
								c-16.8,17.7-39.4,26.6-67.9,26.6c-28.5,0-51.1-8.9-67.9-26.6c-16.8-17.7-25.2-40-25.2-67c0-27,8.4-49.3,25.2-67
								C-13-488,9.6-496.8,38.1-496.8c28.5,0,51.1,8.8,67.9,26.5C122.8-452.6,131.3-430.2,131.3-403.3z M38.5-318.1L38.5-318.1
								c34.5,0,51.8-28.4,51.8-85.2l0,0c0-27.3-3.9-48.3-11.8-63.1c-7.8-14.7-21.2-22.1-40.3-22.1s-32.6,7.4-40.6,22.1
								c-8,14.7-12,35.8-12,63.1l0,0C-14.3-346.5,3.3-318.1,38.5-318.1z M261.2-494.6L261.2-494.6l59.3,2.4l1.6,49.1h-9.7l-9.2-35.3
								c-12.4-4.1-24.3-6.2-35.8-6.2l0,0c-21.4,0-38.7,7-52,21.1c-13.3,14.1-19.9,35-19.9,62.5c0,27.6,6.5,47.9,19.4,60.8
								c12.9,12.9,29.2,19.4,48.9,19.4c19.7,0,33.9-2.2,42.7-6.5l0,0l10-30.7h8.6l-1.6,39.6c-22.5,4.9-42.1,7.3-58.9,7.3
								c-16.8,0-31.1-1.4-43-4.2c-11.9-2.8-23-7.3-33.4-13.6c-10.4-6.3-18.6-15.4-24.4-27.2c-5.8-11.9-8.7-26.1-8.7-42.6
								c0-16.5,3-31.1,9-43.8c6-12.7,14.2-22.7,24.4-30l0,0C208.9-487.3,233.1-494.6,261.2-494.6z M428.2-319.2v6.5h-82.7v-6.5
								l23.4-2.4v-162.3l-23.4-2.4v-6.5h82.7v6.5l-23.4,2.4v162.3L428.2-319.2z M630.1-319.2v6.5h-79.2v-6.5l21.8-2.4l-24.8-62
								h-60.6l-21.6,57.4l24,7v6.5h-56.3v-6.5l20.5-7l65.2-166.6h18.9l71.4,171.2L630.1-319.2z M491-393.6h52.8l-26.4-65.5
								L491-393.6z M630.9-492.8h82.7v6.2l-23.4,2.7v162.5l67.1-0.8l14-30.7h8.6l-3.2,40.2H630.9v-6.5l23.4-2.4v-162.3l-23.4-2.7
								V-492.8z"/>
						</g>
					</g>
					<g transform="matrix(1,0,0,1,0,97.39159063766145)">
						<g transform="matrix(1,0,0,1,0,0)">
							<path id="text-1" fill="#97978D" d="M-187.5-190.7H-213c-0.6,0-0.9-0.4-0.9-1.1l0,0l0.2-154.8c0-0.6,0.4-0.9,1.1-0.9l0,0h25
								c0.8,0,1.1,0.3,1.1,0.9l0,0l-0.2,61.3h33.8v-61.3c0-0.6,0.3-0.9,0.9-0.9l0,0h25c0.8,0,1.1,0.3,1.1,0.9l0,0l0.5,154.8
								c0,0.8-0.4,1.1-1.1,1.1l0,0h-25.2c-0.8,0-1.1-0.4-1.1-1.1l0,0v-66.3h-33.8v66.3C-186.6-191.1-186.9-190.7-187.5-190.7
								L-187.5-190.7z M-65.1-188.5L-65.1-188.5c-8.1,0-15.5-2.1-22.2-6.2c-6.7-4.1-12-9.6-16.1-16.5c-4.1-6.8-6.1-14.4-6.1-22.6
								l0,0l0.2-71.5c0-8.3,2-15.8,6-22.5c4-6.8,9.4-12.2,16.1-16.2c6.8-4.1,14.1-6.1,22.1-6.1l0,0c8.1,0,15.5,2,22.1,6.1
								c6.6,4.1,11.9,9.5,15.9,16.2c4,6.8,6,14.3,6,22.5l0,0l0.2,71.5c0,8.3-2,15.8-6,22.6c-4,6.9-9.3,12.3-16,16.5
								C-49.6-190.6-57-188.5-65.1-188.5z M-65.1-215.8L-65.1-215.8c4.5,0,8.4-1.8,11.8-5.5c3.4-3.7,5.1-7.8,5.1-12.5l0,0l-0.2-71.5
								c0-5-1.6-9.2-4.7-12.6c-3.2-3.5-7.1-5.2-11.9-5.2l0,0c-4.7,0-8.6,1.7-11.9,5c-3.3,3.4-5,7.6-5,12.8l0,0v71.5
								c0,5,1.7,9.2,5,12.7C-73.8-217.5-69.8-215.8-65.1-215.8z M40.1-190.7H12.9c-0.6,0-1-0.4-1.1-1.1l0,0l-26.6-154.8
								c-0.2-0.6,0-0.9,0.7-0.9l0,0h25.2c0.6,0,0.9,0.3,1.1,0.9l0,0l14.4,101.9l14.9-101.9c0.2-0.6,0.6-0.9,1.4-0.9l0,0h20.3
								c0.6,0,0.9,0.3,1.1,0.9l0,0l14.6,101.9l14.7-101.9c0.2-0.6,0.6-0.9,1.1-0.9l0,0h25.1c0.8,0,1,0.3,0.9,0.9l0,0L93.8-191.9
								c-0.2,0.3-0.4,0.6-0.7,0.8c-0.3,0.2-0.4,0.4-0.4,0.4l0,0H65.4c-0.5,0-0.8-0.4-1.1-1.1l0,0l-11.5-80.9l-11.5,80.9
								C41.1-191.1,40.7-190.7,40.1-190.7L40.1-190.7z M164.8-191.9L164.8-191.9l27.9-154.8c0.2-0.6,0.5-0.9,1.1-0.9l0,0h32.7
								c0.6,0,1,0.3,1.1,0.9l0,0l26.8,154.8c0.2,0.8-0.2,1.1-0.9,1.1l0,0h-25c-0.6,0-1-0.4-1.1-1.1l0,0l-2.5-16.5h-30.7l-2.5,16.5
								c-0.2,0.8-0.5,1.1-1.1,1.1l0,0h-25C165.1-190.7,164.8-191.1,164.8-191.9z M208.9-295.8l-10.1,63.3h21.6l-9.2-63.3l-1.4-8.3
								L208.9-295.8z M295-190.7h-25.5c-0.6,0-0.9-0.4-0.9-1.1l0,0l0.5-154.8c0-0.6,0.3-0.9,0.9-0.9l0,0h45.5c8.1,0,15.6,2,22.4,6
								c6.9,4,12.3,9.3,16.4,16c4.1,6.7,6.1,14.3,6.1,22.7l0,0c0,5.6-0.8,10.5-2.5,15c-1.7,4.4-3.6,8.2-5.9,11.3
								c-2.3,3.1-4.3,5.3-6.1,6.9l0,0c8.1,9,12.2,19.6,12.2,31.8l0,0l0.2,46.2c0,0.8-0.4,1.1-1.1,1.1l0,0h-25.5
								c-0.6,0-0.9-0.2-0.9-0.7l0,0v-46.7c0-5.4-1.9-10.1-5.8-14.1c-3.8-4-8.5-6-14.1-6l0,0h-14.9l-0.2,66.3
								C295.9-191.1,295.6-190.7,295-190.7L295-190.7z M296.2-320.6v35.4h19.4c4.7,0,8.8-1.7,12.4-5.2c3.6-3.5,5.4-7.7,5.4-12.6l0,0
								c0-4.8-1.8-8.9-5.3-12.4c-3.5-3.5-7.7-5.2-12.5-5.2l0,0H296.2z M451-190.7h-72.8c-0.6,0-0.9-0.4-0.9-1.1l0,0l0.2-154.8
								c0-0.6,0.3-0.9,0.9-0.9l0,0h72.4c0.6,0,0.9,0.4,0.9,1.1l0,0v25.2c0,0.6-0.3,0.9-0.9,0.9l0,0h-46.2v35.2h46.2
								c0.6,0,0.9,0.3,0.9,0.9l0,0l0.2,25.5c0,0.6-0.3,0.9-0.9,0.9l0,0h-46.4v39.4H451c0.6,0,0.9,0.4,0.9,1.1l0,0v25.7
								C451.9-191,451.6-190.7,451-190.7L451-190.7z M552.2-190.7h-25.9c-0.5,0-0.7-0.3-0.7-0.9l0,0l0.2-64l-30.2-91.1
								c-0.2-0.6,0.1-0.9,0.7-0.9l0,0h25c0.8,0,1.2,0.3,1.4,0.9l0,0l16.7,60.6l16.9-60.6c0.2-0.6,0.5-0.9,1.1-0.9l0,0h25.2
								c0.6,0,0.8,0.3,0.7,0.9l0,0l-30.4,90.2l0.2,64.9C553.1-191,552.8-190.7,552.2-190.7L552.2-190.7z M629.9-188.5L629.9-188.5
								c-8.1,0-15.5-2.1-22.2-6.2c-6.7-4.1-12-9.6-16.1-16.5c-4.1-6.8-6.1-14.4-6.1-22.6l0,0l0.2-71.5c0-8.3,2-15.8,6-22.5
								c4-6.8,9.4-12.2,16.1-16.2c6.8-4.1,14.1-6.1,22.1-6.1l0,0c8.1,0,15.5,2,22.1,6.1c6.6,4.1,11.9,9.5,15.9,16.2
								c4,6.8,6,14.3,6,22.5l0,0l0.2,71.5c0,8.3-2,15.8-6,22.6c-4,6.9-9.3,12.3-16,16.5C645.4-190.6,638-188.5,629.9-188.5z
								 M629.9-215.8L629.9-215.8c4.5,0,8.4-1.8,11.8-5.5c3.4-3.7,5.1-7.8,5.1-12.5l0,0l-0.2-71.5c0-5-1.6-9.2-4.7-12.6
								c-3.2-3.5-7.1-5.2-11.9-5.2l0,0c-4.7,0-8.6,1.7-11.9,5c-3.3,3.4-5,7.6-5,12.8l0,0v71.5c0,5,1.7,9.2,5,12.7
								C621.3-217.5,625.3-215.8,629.9-215.8z M734.1-188.5L734.1-188.5c-8,0-15.3-2.1-22.1-6.2c-6.8-4.1-12.1-9.6-16.1-16.5
								c-4-6.9-6-14.5-6-22.8l0,0l0.5-112.7c0-0.6,0.3-0.9,0.9-0.9l0,0h25.2c0.6,0,0.9,0.3,0.9,0.9l0,0V-234c0,5.1,1.6,9.4,4.8,12.9
								c3.2,3.5,7.2,5.3,11.9,5.3l0,0c4.8,0,8.8-1.8,12-5.3c3.2-3.5,4.9-7.8,4.9-12.9l0,0v-112.7c0-0.6,0.3-0.9,0.9-0.9l0,0h25.2
								c0.6,0,0.9,0.3,0.9,0.9l0,0l0.5,112.7c0,8.4-2,16.1-6,23c-4,6.9-9.3,12.4-16,16.5C749.8-190.5,742.3-188.5,734.1-188.5z"/>
						</g>
					</g>
				</g>
			</g>
		</g>
		<rect x="-213.9" y="-497.1" display="none" fill="none" width="997.4" height="406"/>
	</g>
</g>
</svg>
